<svg width="147" height="38" viewBox="0 0 147 38" fill="none" xmlns="http://www.w3.org/2000/svg">
<rect x="0.142005" y="10.0824" width="25.8449" height="18.1766" fill="#EA2427" stroke="white" stroke-width="0.28401"/>
<rect x="7.38428" y="10.2241" width="3.97613" height="17.8926" fill="white"/>
<rect x="0.283997" y="21.3008" width="3.97613" height="25.5609" transform="rotate(-90 0.283997 21.3008)" fill="white"/>
<path d="M41.4708 9.92097C43.3604 9.92097 45.0117 10.304 46.4246 11.0701C47.8546 11.8361 48.9526 12.9001 49.7187 14.262C50.4847 15.6239 50.8678 17.173 50.8678 18.9094C50.8678 20.6288 50.4847 22.1779 49.7187 23.5568C48.9526 24.9358 47.8546 26.0253 46.4246 26.8254C45.0117 27.6085 43.3604 28 41.4708 28H33.9378V9.92097H41.4708ZM40.9601 22.944C42.2368 22.944 43.2497 22.595 43.9988 21.8971C44.7478 21.1991 45.1223 20.2032 45.1223 18.9094C45.1223 17.6156 44.7478 16.6197 43.9988 15.9218C43.2497 15.2238 42.2368 14.8748 40.9601 14.8748H39.6067V22.944H40.9601ZM52.1487 20.799C52.1487 19.2839 52.4041 17.9731 52.9148 16.8666C53.4425 15.743 54.1575 14.8919 55.0598 14.3131C55.962 13.7172 56.9749 13.4193 58.0985 13.4193C59.0348 13.4193 59.8434 13.6151 60.5243 14.0066C61.2053 14.3811 61.7245 14.9004 62.082 15.5643V13.5981H67.7253V28H62.082V26.0338C61.7245 26.6977 61.2053 27.2254 60.5243 27.617C59.8434 27.9915 59.0348 28.1787 58.0985 28.1787C56.9749 28.1787 55.962 27.8893 55.0598 27.3105C54.1575 26.7147 53.4425 25.8635 52.9148 24.757C52.4041 23.6335 52.1487 22.3141 52.1487 20.799ZM62.082 20.799C62.082 20.033 61.8862 19.4371 61.4947 19.0116C61.1031 18.586 60.6009 18.3732 59.9881 18.3732C59.3752 18.3732 58.873 18.586 58.4815 19.0116C58.09 19.4371 57.8942 20.033 57.8942 20.799C57.8942 21.5651 58.09 22.1609 58.4815 22.5865C58.873 23.0121 59.3752 23.2249 59.9881 23.2249C60.6009 23.2249 61.1031 23.0121 61.4947 22.5865C61.8862 22.1609 62.082 21.5651 62.082 20.799ZM80.3573 13.4959C82.0086 13.4959 83.2939 14.0492 84.2132 15.1557C85.1494 16.2623 85.6176 17.7603 85.6176 19.6499V28H79.9743V20.3649C79.9743 19.684 79.787 19.1477 79.4125 18.7562C79.055 18.3476 78.5698 18.1434 77.957 18.1434C77.3271 18.1434 76.8334 18.3476 76.4759 18.7562C76.1184 19.1477 75.9397 19.684 75.9397 20.3649V28H70.2709V13.5981H75.9397V15.7941C76.3823 15.1132 76.9696 14.5599 77.7016 14.1343C78.4507 13.7087 79.3359 13.4959 80.3573 13.4959ZM94.4851 28.1787C93.1233 28.1787 91.9146 27.9574 90.8591 27.5148C89.8207 27.0722 88.995 26.4594 88.3822 25.6763C87.7693 24.8932 87.4204 24.008 87.3352 23.0206H92.7743C92.8424 23.4462 93.0211 23.7611 93.3105 23.9654C93.6169 24.1697 94 24.2718 94.4596 24.2718C94.749 24.2718 94.9788 24.2123 95.1491 24.0931C95.3193 23.9569 95.4044 23.7952 95.4044 23.6079C95.4044 23.2845 95.2257 23.0547 94.8682 22.9185C94.5107 22.7823 93.9063 22.6291 93.0552 22.4588C92.0167 22.2545 91.157 22.0332 90.4761 21.7949C89.8122 21.5566 89.2249 21.148 88.7142 20.5692C88.2205 19.9904 87.9736 19.1903 87.9736 18.1689C87.9736 17.2837 88.2034 16.4836 88.6631 15.7686C89.1397 15.0366 89.8377 14.4663 90.757 14.0577C91.6763 13.6321 92.7913 13.4193 94.1021 13.4193C96.0428 13.4193 97.5579 13.896 98.6474 14.8493C99.7539 15.8026 100.418 17.0453 100.639 18.5775H95.6087C95.5236 18.1859 95.3448 17.888 95.0725 17.6837C94.8001 17.4624 94.4341 17.3518 93.9744 17.3518C93.685 17.3518 93.4637 17.4113 93.3105 17.5305C93.1573 17.6326 93.0807 17.7944 93.0807 18.0157C93.0807 18.3051 93.2594 18.5264 93.6169 18.6796C93.9744 18.8158 94.5447 18.9605 95.3278 19.1137C96.3662 19.318 97.243 19.5478 97.958 19.8032C98.6729 20.0585 99.2943 20.5011 99.822 21.131C100.35 21.7438 100.614 22.595 100.614 23.6845C100.614 24.5357 100.367 25.3018 99.8731 25.9827C99.3794 26.6637 98.6644 27.1999 97.7281 27.5914C96.8089 27.983 95.7279 28.1787 94.4851 28.1787ZM112.082 28L108.532 22.2545V28H102.863V9.10384H108.532V18.986L112.133 13.5981H118.721L113.333 20.8501L118.848 28H112.082Z" fill="white"/>
<line y1="-1.19999" x2="17.1248" y2="-1.19999" transform="matrix(0.704963 -0.709244 0.704963 0.709244 134.928 27.146)" stroke="white" stroke-width="2.39997"/>
<line y1="-1.19999" x2="17.1248" y2="-1.19999" transform="matrix(0.704963 0.709244 -0.704963 0.709244 123 15)" stroke="white" stroke-width="2.39997"/>
</svg>
