<svg width="26" height="26" viewBox="0 0 26 26" fill="none" xmlns="http://www.w3.org/2000/svg">
<path d="M25.5415 12.8819C25.5415 5.7675 19.8238 0 12.7708 0C5.71772 0 0 5.7675 0 12.8819C0 18.923 4.12342 23.9923 9.68585 25.3846V16.8187H7.05252V12.8819H9.68585V11.1856C9.68585 6.80115 11.6531 4.76889 15.9205 4.76889C16.7297 4.76889 18.1258 4.92914 18.6969 5.08888V8.65717C18.3955 8.62523 17.8719 8.60925 17.2216 8.60925C15.1277 8.60925 14.3186 9.40948 14.3186 11.4897V12.8819H18.49L17.7733 16.8187H14.3186V25.6696C20.6421 24.8992 25.542 19.4682 25.542 12.8819H25.5415Z" fill="white"/>
</svg>
