<svg width="26" height="26" viewBox="0 0 26 26" fill="none" xmlns="http://www.w3.org/2000/svg">
<path d="M12.8001 0H12.7419C5.70476 0 0 5.73493 0 12.8093V12.8678C0 19.9422 5.70476 25.6771 12.7419 25.6771H12.8001C19.8373 25.6771 25.542 19.9422 25.542 12.8678V12.8093C25.542 5.73493 19.8373 0 12.8001 0Z" fill="white"/>
<path d="M16.7597 5.7124L8.85624 5.7124C6.67278 5.7124 4.89648 7.4981 4.89648 9.69311V16.9618C4.89648 19.1568 6.67278 20.9425 8.85624 20.9425H16.7597C18.9431 20.9425 20.7194 19.1568 20.7194 16.9618V9.69311C20.7194 7.4981 18.9431 5.7124 16.7597 5.7124ZM6.29336 9.69311C6.29336 8.27265 7.44326 7.11667 8.85624 7.11667L16.7597 7.11667C18.1726 7.11667 19.3225 8.27265 19.3225 9.69311V16.9618C19.3225 18.3823 18.1726 19.5383 16.7597 19.5383H8.85624C7.44326 19.5383 6.29336 18.3823 6.29336 16.9618V9.69311Z" fill="#343434"/>
<path d="M12.8083 17.029C14.8387 17.029 16.4915 15.3683 16.4915 13.3263C16.4915 11.2842 14.8396 9.62354 12.8083 9.62354C10.7769 9.62354 9.125 11.2842 9.125 13.3263C9.125 15.3683 10.7769 17.029 12.8083 17.029ZM12.8083 11.0287C14.0691 11.0287 15.0946 12.0596 15.0946 13.3272C15.0946 14.5947 14.0691 15.6256 12.8083 15.6256C11.5474 15.6256 10.5219 14.5947 10.5219 13.3272C10.5219 12.0596 11.5474 11.0287 12.8083 11.0287Z" fill="#343434"/>
<path d="M16.8322 10.2219C17.379 10.2219 17.8246 9.77477 17.8246 9.22421C17.8246 8.67366 17.3799 8.22656 16.8322 8.22656C16.2846 8.22656 15.8398 8.67366 15.8398 9.22421C15.8398 9.77477 16.2846 10.2219 16.8322 10.2219Z" fill="#343434"/>
</svg>
