<svg width="240" height="181" viewBox="0 0 240 181" fill="none" xmlns="http://www.w3.org/2000/svg">
<rect x="1.25" y="1.25" width="237.5" height="178.5" rx="8.75" fill="#4C73FF" stroke="#040507" stroke-width="2.5"/>
<path d="M36.7187 15.1476C37.4762 13.115 36.7187 2.49998 36.7187 2.49998C36.7187 2.49998 24.9487 2.54091 19.5 2.39309C14.0513 2.24527 10.5 1.49981 7.75 2.50005C2.06754 4.56691 2.5 9.49976 2.5 9.49976L2.14444 169.376C1.79774 174.728 4.31664 177.005 8.5 178.5C10.3977 179.178 96.8405 178.525 102.925 178.525C108.773 178.525 224.755 178.691 225.764 178.525C225.711 176.709 218.998 171.233 218.538 170.152C218.288 169.563 215.118 167.755 213.671 166.716C212.023 165.531 209.742 164.128 205.625 162.914C202.923 162.117 199.023 161.158 194.746 160.229C190.468 159.3 185.951 158.428 172.007 157.947C158.063 157.466 135.381 157.379 123.86 157.288C112.339 157.196 111.99 157.103 109.383 156.891C106.776 156.678 102.054 156.356 95.2709 155.36C88.4875 154.364 79.9027 152.744 73.2348 151.714C66.567 150.683 61.9557 150.256 57.5716 149.413C53.1874 148.571 49.1526 147.35 46.2855 146.152C43.4184 144.953 41.7689 143.813 39.9153 142.233C38.0617 140.652 35.9979 138.821 34.8168 137.392C32.4151 134.486 31.1432 132.531 29.7252 127.728C28.5116 123.618 27.5958 120.103 27.2343 116.927C27.0027 114.893 26.7412 112.033 26.9085 101.321C27.0758 90.609 27.6542 72.5916 29.0874 57.9602C30.5206 43.3289 32.6653 32.3779 34.086 26.1168L34.3709 24.8608C35.9338 17.9711 36.3496 16.1379 36.7187 15.1476Z" fill="#3458DD"/>
<path d="M0 43.2812C0 43.5938 0 43.9062 0 44.2188C4 44.3229 8 44.4167 12 44.5C28 44.8333 44 45 60 45C116 45 172 44.7731 228 44.3194C232 44.287 236 44.2535 240 44.2188C240 43.9062 240 43.5938 240 43.2812C236 43.2465 232 43.213 228 43.1806C172 42.7269 116 42.5 60 42.5C44 42.5 28 42.6667 12 43C8 43.0833 4 43.1771 0 43.2812Z" fill="#040507"/>
<path d="M0 77.2812C0 77.5938 0 77.9062 0 78.2188C4 78.2708 8 78.3203 12 78.3672C48 78.7891 84 79 120 79C156 79 192 78.7891 228 78.3672C232 78.3203 236 78.2708 240 78.2188C240 77.9062 240 77.5938 240 77.2812C236 77.2292 232 77.1797 228 77.1328C192 76.7109 156 76.5 120 76.5C84 76.5 48 76.7109 12 77.1328C8 77.1797 4 77.2292 0 77.2812Z" fill="#040507"/>
<path d="M0 111.281C0 111.594 0 111.906 0 112.219C4 112.271 8 112.32 12 112.367C48 112.789 84 113 120 113C156 113 192 112.789 228 112.367C232 112.32 236 112.271 240 112.219C240 111.906 240 111.594 240 111.281C236 111.229 232 111.18 228 111.133C192 110.711 156 110.5 120 110.5C84 110.5 48 110.711 12 111.133C8 111.18 4 111.229 0 111.281Z" fill="#040507"/>
<path d="M0 145.281C0 145.594 0 145.906 0 146.219C4 146.271 8 146.32 12 146.367C48 146.789 84 147 120 147C156 147 192 146.789 228 146.367C232 146.32 236 146.271 240 146.219C240 145.906 240 145.594 240 145.281C236 145.229 232 145.18 228 145.133C192 144.711 156 144.5 120 144.5C84 144.5 48 144.711 12 145.133C8 145.18 4 145.229 0 145.281Z" fill="#040507"/>
<path d="M30.2812 181C30.5938 181 30.9062 181 31.2188 181C31.2708 178.733 31.3203 176.467 31.3672 174.2C31.7891 153.8 32 133.4 32 113C32 92.6 31.7891 72.2 31.3672 51.8C31.3203 49.5333 31.2708 47.2667 31.2188 45C30.9063 45 30.5938 45 30.2813 45C30.2292 47.2667 30.1797 49.5333 30.1328 51.8C29.7109 72.2 29.5 92.6 29.5 113C29.5 133.4 29.7109 153.8 30.1328 174.2C30.1797 176.467 30.2292 178.733 30.2812 181Z" fill="#040507"/>
<path d="M65.2812 181C65.5938 181 65.9062 181 66.2188 181C66.3229 178.733 66.4167 176.467 66.5 174.2C66.8333 165.133 67 156.067 67 147C67 115.267 66.7731 83.5333 66.3194 51.8C66.287 49.5333 66.2535 47.2667 66.2188 45C65.9063 45 65.5938 45 65.2813 45C65.2465 47.2667 65.213 49.5333 65.1806 51.8C64.7269 83.5333 64.5 115.267 64.5 147C64.5 156.067 64.6667 165.133 65 174.2C65.0833 176.467 65.1771 178.733 65.2812 181Z" fill="#040507"/>
<path d="M100.281 181C100.594 181 100.906 181 101.219 181C101.271 178.733 101.32 176.467 101.367 174.2C101.789 153.8 102 133.4 102 113C102 92.6 101.789 72.2 101.367 51.8C101.32 49.5333 101.271 47.2667 101.219 45C100.906 45 100.594 45 100.281 45C100.229 47.2667 100.18 49.5333 100.133 51.8C99.7109 72.2 99.5 92.6 99.5 113C99.5 133.4 99.7109 153.8 100.133 174.2C100.18 176.467 100.229 178.733 100.281 181Z" fill="#040507"/>
<path d="M135.281 181C135.594 181 135.906 181 136.219 181C136.323 178.733 136.417 176.467 136.5 174.2C136.833 165.133 137 156.067 137 147C137 115.267 136.773 83.5333 136.319 51.8C136.287 49.5333 136.253 47.2667 136.219 45C135.906 45 135.594 45 135.281 45C135.247 47.2667 135.213 49.5333 135.181 51.8C134.727 83.5333 134.5 115.267 134.5 147C134.5 156.067 134.667 165.133 135 174.2C135.083 176.467 135.177 178.733 135.281 181Z" fill="#040507"/>
<path d="M170.281 181C170.594 181 170.906 181 171.219 181C171.271 178.733 171.32 176.467 171.367 174.2C171.789 153.8 172 133.4 172 113C172 92.6 171.789 72.2 171.367 51.8C171.32 49.5333 171.271 47.2667 171.219 45C170.906 45 170.594 45 170.281 45C170.229 47.2667 170.18 49.5333 170.133 51.8C169.711 72.2 169.5 92.6 169.5 113C169.5 133.4 169.711 153.8 170.133 174.2C170.18 176.467 170.229 178.733 170.281 181Z" fill="#040507"/>
<path d="M205.281 181C205.594 181 205.906 181 206.219 181C206.323 178.733 206.417 176.467 206.5 174.2C206.833 165.133 207 156.067 207 147C207 115.267 206.773 83.5333 206.319 51.8C206.287 49.5333 206.253 47.2667 206.219 45C205.906 45 205.594 45 205.281 45C205.247 47.2667 205.213 49.5333 205.181 51.8C204.727 83.5333 204.5 115.267 204.5 147C204.5 156.067 204.667 165.133 205 174.2C205.083 176.467 205.177 178.733 205.281 181Z" fill="#040507"/>
<path d="M183.27 106.32C183.27 106.06 183.22 105.93 183.12 105.93L182.43 106.26C182.43 106.12 182.35 106.02 182.19 105.96L181.95 105.93C181.79 105.93 181.59 106 181.35 106.14C181.31 106.04 181.26 105.94 181.2 105.84C181.14 105.74 181.09 105.65 181.05 105.57C180.79 105.07 180.53 104.52 180.27 103.92C180.03 103.3 179.8 102.71 179.58 102.15C179.38 101.59 179.22 101.15 179.1 100.83C179.02 100.57 178.93 100.18 178.83 99.66C178.73 99.14 178.63 98.48 178.53 97.68C178.75 97.82 178.92 97.89 179.04 97.89C179.18 97.89 179.31 97.68 179.43 97.26C179.49 97.34 179.6 97.38 179.76 97.38C179.88 97.38 179.97 97.34 180.03 97.26L180.51 96.54L181.05 96.72H181.08C181.12 96.72 181.16 96.7 181.2 96.66C181.24 96.62 181.3 96.58 181.38 96.54C181.54 96.44 181.66 96.39 181.74 96.39L181.83 96.42C182.33 96.66 182.65 97.1 182.79 97.74C183.15 99.26 183.51 100.02 183.87 100.02C184.23 100.02 184.65 99.64 185.13 98.88C185.37 98.5 185.61 98.06 185.85 97.56C186.11 97.06 186.37 96.5 186.63 95.88C186.67 96.12 186.71 96.24 186.75 96.24C186.85 96.24 187.02 95.99 187.26 95.49C187.52 94.99 187.93 94.3 188.49 93.42C188.81 92.88 189.21 92.27 189.69 91.59C190.19 90.91 190.72 90.21 191.28 89.49C191.84 88.77 192.38 88.09 192.9 87.45C193.44 86.81 193.92 86.26 194.34 85.8C194.76 85.34 195.07 85.04 195.27 84.9C196.03 84.38 196.63 83.88 197.07 83.4C197.05 83.54 197.02 83.67 196.98 83.79C196.96 83.89 196.95 83.96 196.95 84C196.95 84.08 196.99 84.12 197.07 84.12L197.91 83.7V83.82C197.91 83.98 197.95 84.06 198.03 84.06C198.09 84.06 198.21 83.97 198.39 83.79C198.57 83.61 198.67 83.48 198.69 83.4L198.63 83.82L199.65 83.22L199.41 83.76C199.73 83.54 199.96 83.43 200.1 83.43C200.18 83.43 200.24 83.48 200.28 83.58C200.32 83.66 200.34 83.74 200.34 83.82C200.34 83.94 200.29 84.08 200.19 84.24C200.09 84.4 199.96 84.59 199.8 84.81C199.68 84.97 199.48 85.21 199.2 85.53C198.94 85.83 198.54 86.28 198 86.88C197.46 87.46 196.74 88.27 195.84 89.31C195.6 89.57 195.23 90.03 194.73 90.69C194.23 91.33 193.66 92.08 193.02 92.94C192.4 93.78 191.78 94.63 191.16 95.49C190.54 96.35 189.99 97.13 189.51 97.83C189.03 98.51 188.69 99.02 188.49 99.36L186.63 102.51C186.23 103.19 185.9 103.75 185.64 104.19C185.38 104.61 185.18 104.9 185.04 105.06C184.74 105.42 184.41 105.74 184.05 106.02L183.78 105.87L183.54 106.02L183.27 106.32Z" fill="#00A550"/>
<path d="M78.27 72.32C78.27 72.06 78.22 71.93 78.12 71.93L77.43 72.26C77.43 72.12 77.35 72.02 77.19 71.96L76.95 71.93C76.79 71.93 76.59 72 76.35 72.14C76.31 72.04 76.26 71.94 76.2 71.84C76.14 71.74 76.09 71.65 76.05 71.57C75.79 71.07 75.53 70.52 75.27 69.92C75.03 69.3 74.8 68.71 74.58 68.15C74.38 67.59 74.22 67.15 74.1 66.83C74.02 66.57 73.93 66.18 73.83 65.66C73.73 65.14 73.63 64.48 73.53 63.68C73.75 63.82 73.92 63.89 74.04 63.89C74.18 63.89 74.31 63.68 74.43 63.26C74.49 63.34 74.6 63.38 74.76 63.38C74.88 63.38 74.97 63.34 75.03 63.26L75.51 62.54L76.05 62.72H76.08C76.12 62.72 76.16 62.7 76.2 62.66C76.24 62.62 76.3 62.58 76.38 62.54C76.54 62.44 76.66 62.39 76.74 62.39L76.83 62.42C77.33 62.66 77.65 63.1 77.79 63.74C78.15 65.26 78.51 66.02 78.87 66.02C79.23 66.02 79.65 65.64 80.13 64.88C80.37 64.5 80.61 64.06 80.85 63.56C81.11 63.06 81.37 62.5 81.63 61.88C81.67 62.12 81.71 62.24 81.75 62.24C81.85 62.24 82.02 61.99 82.26 61.49C82.52 60.99 82.93 60.3 83.49 59.42C83.81 58.88 84.21 58.27 84.69 57.59C85.19 56.91 85.72 56.21 86.28 55.49C86.84 54.77 87.38 54.09 87.9 53.45C88.44 52.81 88.92 52.26 89.34 51.8C89.76 51.34 90.07 51.04 90.27 50.9C91.03 50.38 91.63 49.88 92.07 49.4C92.05 49.54 92.02 49.67 91.98 49.79C91.96 49.89 91.95 49.96 91.95 50C91.95 50.08 91.99 50.12 92.07 50.12L92.91 49.7V49.82C92.91 49.98 92.95 50.06 93.03 50.06C93.09 50.06 93.21 49.97 93.39 49.79C93.57 49.61 93.67 49.48 93.69 49.4L93.63 49.82L94.65 49.22L94.41 49.76C94.73 49.54 94.96 49.43 95.1 49.43C95.18 49.43 95.24 49.48 95.28 49.58C95.32 49.66 95.34 49.74 95.34 49.82C95.34 49.94 95.29 50.08 95.19 50.24C95.09 50.4 94.96 50.59 94.8 50.81C94.68 50.97 94.48 51.21 94.2 51.53C93.94 51.83 93.54 52.28 93 52.88C92.46 53.46 91.74 54.27 90.84 55.31C90.6 55.57 90.23 56.03 89.73 56.69C89.23 57.33 88.66 58.08 88.02 58.94C87.4 59.78 86.78 60.63 86.16 61.49C85.54 62.35 84.99 63.13 84.51 63.83C84.03 64.51 83.69 65.02 83.49 65.36L81.63 68.51C81.23 69.19 80.9 69.75 80.64 70.19C80.38 70.61 80.18 70.9 80.04 71.06C79.74 71.42 79.41 71.74 79.05 72.02L78.78 71.87L78.54 72.02L78.27 72.32Z" fill="#00A550"/>
<path d="M113.27 140.32C113.27 140.06 113.22 139.93 113.12 139.93L112.43 140.26C112.43 140.12 112.35 140.02 112.19 139.96L111.95 139.93C111.79 139.93 111.59 140 111.35 140.14C111.31 140.04 111.26 139.94 111.2 139.84C111.14 139.74 111.09 139.65 111.05 139.57C110.79 139.07 110.53 138.52 110.27 137.92C110.03 137.3 109.8 136.71 109.58 136.15C109.38 135.59 109.22 135.15 109.1 134.83C109.02 134.57 108.93 134.18 108.83 133.66C108.73 133.14 108.63 132.48 108.53 131.68C108.75 131.82 108.92 131.89 109.04 131.89C109.18 131.89 109.31 131.68 109.43 131.26C109.49 131.34 109.6 131.38 109.76 131.38C109.88 131.38 109.97 131.34 110.03 131.26L110.51 130.54L111.05 130.72H111.08C111.12 130.72 111.16 130.7 111.2 130.66C111.24 130.62 111.3 130.58 111.38 130.54C111.54 130.44 111.66 130.39 111.74 130.39L111.83 130.42C112.33 130.66 112.65 131.1 112.79 131.74C113.15 133.26 113.51 134.02 113.87 134.02C114.23 134.02 114.65 133.64 115.13 132.88C115.37 132.5 115.61 132.06 115.85 131.56C116.11 131.06 116.37 130.5 116.63 129.88C116.67 130.12 116.71 130.24 116.75 130.24C116.85 130.24 117.02 129.99 117.26 129.49C117.52 128.99 117.93 128.3 118.49 127.42C118.81 126.88 119.21 126.27 119.69 125.59C120.19 124.91 120.72 124.21 121.28 123.49C121.84 122.77 122.38 122.09 122.9 121.45C123.44 120.81 123.92 120.26 124.34 119.8C124.76 119.34 125.07 119.04 125.27 118.9C126.03 118.38 126.63 117.88 127.07 117.4C127.05 117.54 127.02 117.67 126.98 117.79C126.96 117.89 126.95 117.96 126.95 118C126.95 118.08 126.99 118.12 127.07 118.12L127.91 117.7V117.82C127.91 117.98 127.95 118.06 128.03 118.06C128.09 118.06 128.21 117.97 128.39 117.79C128.57 117.61 128.67 117.48 128.69 117.4L128.63 117.82L129.65 117.22L129.41 117.76C129.73 117.54 129.96 117.43 130.1 117.43C130.18 117.43 130.24 117.48 130.28 117.58C130.32 117.66 130.34 117.74 130.34 117.82C130.34 117.94 130.29 118.08 130.19 118.24C130.09 118.4 129.96 118.59 129.8 118.81C129.68 118.97 129.48 119.21 129.2 119.53C128.94 119.83 128.54 120.28 128 120.88C127.46 121.46 126.74 122.27 125.84 123.31C125.6 123.57 125.23 124.03 124.73 124.69C124.23 125.33 123.66 126.08 123.02 126.94C122.4 127.78 121.78 128.63 121.16 129.49C120.54 130.35 119.99 131.13 119.51 131.83C119.03 132.51 118.69 133.02 118.49 133.36L116.63 136.51C116.23 137.19 115.9 137.75 115.64 138.19C115.38 138.61 115.18 138.9 115.04 139.06C114.74 139.42 114.41 139.74 114.05 140.02L113.78 139.87L113.54 140.02L113.27 140.32Z" fill="#00A550"/>
<path d="M43.27 174.32C43.27 174.06 43.22 173.93 43.12 173.93L42.43 174.26C42.43 174.12 42.35 174.02 42.19 173.96L41.95 173.93C41.79 173.93 41.59 174 41.35 174.14C41.31 174.04 41.26 173.94 41.2 173.84C41.14 173.74 41.09 173.65 41.05 173.57C40.79 173.07 40.53 172.52 40.27 171.92C40.03 171.3 39.8 170.71 39.58 170.15C39.38 169.59 39.22 169.15 39.1 168.83C39.02 168.57 38.93 168.18 38.83 167.66C38.73 167.14 38.63 166.48 38.53 165.68C38.75 165.82 38.92 165.89 39.04 165.89C39.18 165.89 39.31 165.68 39.43 165.26C39.49 165.34 39.6 165.38 39.76 165.38C39.88 165.38 39.97 165.34 40.03 165.26L40.51 164.54L41.05 164.72H41.08C41.12 164.72 41.16 164.7 41.2 164.66C41.24 164.62 41.3 164.58 41.38 164.54C41.54 164.44 41.66 164.39 41.74 164.39L41.83 164.42C42.33 164.66 42.65 165.1 42.79 165.74C43.15 167.26 43.51 168.02 43.87 168.02C44.23 168.02 44.65 167.64 45.13 166.88C45.37 166.5 45.61 166.06 45.85 165.56C46.11 165.06 46.37 164.5 46.63 163.88C46.67 164.12 46.71 164.24 46.75 164.24C46.85 164.24 47.02 163.99 47.26 163.49C47.52 162.99 47.93 162.3 48.49 161.42C48.81 160.88 49.21 160.27 49.69 159.59C50.19 158.91 50.72 158.21 51.28 157.49C51.84 156.77 52.38 156.09 52.9 155.45C53.44 154.81 53.92 154.26 54.34 153.8C54.76 153.34 55.07 153.04 55.27 152.9C56.03 152.38 56.63 151.88 57.07 151.4C57.05 151.54 57.02 151.67 56.98 151.79C56.96 151.89 56.95 151.96 56.95 152C56.95 152.08 56.99 152.12 57.07 152.12L57.91 151.7V151.82C57.91 151.98 57.95 152.06 58.03 152.06C58.09 152.06 58.21 151.97 58.39 151.79C58.57 151.61 58.67 151.48 58.69 151.4L58.63 151.82L59.65 151.22L59.41 151.76C59.73 151.54 59.96 151.43 60.1 151.43C60.18 151.43 60.24 151.48 60.28 151.58C60.32 151.66 60.34 151.74 60.34 151.82C60.34 151.94 60.29 152.08 60.19 152.24C60.09 152.4 59.96 152.59 59.8 152.81C59.68 152.97 59.48 153.21 59.2 153.53C58.94 153.83 58.54 154.28 58 154.88C57.46 155.46 56.74 156.27 55.84 157.31C55.6 157.57 55.23 158.03 54.73 158.69C54.23 159.33 53.66 160.08 53.02 160.94C52.4 161.78 51.78 162.63 51.16 163.49C50.54 164.35 49.99 165.13 49.51 165.83C49.03 166.51 48.69 167.02 48.49 167.36L46.63 170.51C46.23 171.19 45.9 171.75 45.64 172.19C45.38 172.61 45.18 172.9 45.04 173.06C44.74 173.42 44.41 173.74 44.05 174.02L43.78 173.87L43.54 174.02L43.27 174.32Z" fill="#00A550"/>
<path d="M94.03 13.76V35H87.4V24.41L84.13 35H78.43L75.16 24.41V35H68.5V13.76H76.66L81.34 26.51L85.9 13.76H94.03ZM105.075 35.21C103.375 35.21 101.845 34.86 100.485 34.16C99.1252 33.46 98.0552 32.46 97.2752 31.16C96.5152 29.84 96.1352 28.3 96.1352 26.54C96.1352 24.78 96.5152 23.25 97.2752 21.95C98.0552 20.63 99.1252 19.62 100.485 18.92C101.845 18.22 103.375 17.87 105.075 17.87C106.775 17.87 108.305 18.22 109.665 18.92C111.025 19.62 112.085 20.63 112.845 21.95C113.625 23.25 114.015 24.78 114.015 26.54C114.015 28.3 113.625 29.84 112.845 31.16C112.085 32.46 111.025 33.46 109.665 34.16C108.305 34.86 106.775 35.21 105.075 35.21ZM105.075 29.45C105.695 29.45 106.215 29.21 106.635 28.73C107.055 28.23 107.265 27.5 107.265 26.54C107.265 25.58 107.055 24.86 106.635 24.38C106.215 23.88 105.695 23.63 105.075 23.63C104.455 23.63 103.935 23.88 103.515 24.38C103.095 24.86 102.885 25.58 102.885 26.54C102.885 27.5 103.085 28.23 103.485 28.73C103.905 29.21 104.435 29.45 105.075 29.45ZM127.957 17.96C129.897 17.96 131.407 18.61 132.487 19.91C133.587 21.21 134.137 22.97 134.137 25.19V35H127.507V26.03C127.507 25.23 127.287 24.6 126.847 24.14C126.427 23.66 125.857 23.42 125.137 23.42C124.397 23.42 123.817 23.66 123.397 24.14C122.977 24.6 122.767 25.23 122.767 26.03V35H116.107V18.08H122.767V20.66C123.287 19.86 123.977 19.21 124.837 18.71C125.717 18.21 126.757 17.96 127.957 17.96ZM147.555 29.33V35H145.035C140.395 35 138.075 32.69 138.075 28.07V23.63H135.975V18.08H138.075V14H144.735V18.08H147.495V23.63H144.735V28.19C144.735 28.59 144.825 28.88 145.005 29.06C145.205 29.24 145.525 29.33 145.965 29.33H147.555ZM161.942 17.96C163.882 17.96 165.392 18.61 166.472 19.91C167.572 21.21 168.122 22.97 168.122 25.19V35H161.492V26.03C161.492 25.23 161.272 24.6 160.832 24.14C160.412 23.66 159.842 23.42 159.122 23.42C158.382 23.42 157.802 23.66 157.382 24.14C156.962 24.6 156.752 25.23 156.752 26.03V35H150.092V12.8H156.752V20.66C157.272 19.86 157.962 19.21 158.822 18.71C159.702 18.21 160.742 17.96 161.942 17.96Z" fill="white"/>
</svg>
