<svg width="186" height="224" viewBox="0 0 186 224" fill="none" xmlns="http://www.w3.org/2000/svg">
<path d="M117.117 194.903L117.122 210.319C96.5625 212.913 85.3454 211.033 66.7636 202.609L72.1081 188.115C89.607 195.599 99.441 196.995 117.117 194.903Z" fill="#00A550"/>
<path d="M116.654 210.319C116.966 210.319 117.279 210.319 117.591 210.319C117.695 208.171 117.788 206.023 117.87 203.875C117.985 200.884 118.08 197.893 118.154 194.902L118.183 193.762L116.995 193.872C111.438 194.384 105.907 194.733 100.42 194.437C90.7913 194.004 81.545 190.83 72.5712 187.032L71.4396 186.542L71.0032 187.708C69.2454 192.548 67.4939 197.39 65.7486 202.235L65.3963 203.169L66.317 203.595C80.0235 210.065 95.6334 213.588 110.758 211.572C112.905 211.357 115.043 211.088 117.181 210.784C117.142 210.474 117.103 210.164 117.064 209.854C114.927 210.088 112.795 210.288 110.662 210.437C95.5761 211.951 80.7367 208.225 67.2102 201.624L67.7786 202.984C69.5963 198.166 71.4078 193.345 73.2131 188.523L71.6451 189.198C80.6531 193.116 90.2416 196.482 100.285 196.933C105.993 197.24 111.657 196.733 117.239 195.933L116.079 194.903C116.156 197.894 116.253 200.885 116.37 203.875C116.454 206.023 116.549 208.171 116.654 210.319ZM117.591 210.319L116.654 210.319L117.064 209.854L117.181 210.784L117.571 210.741L117.591 210.319Z" fill="#040507"/>
<path d="M80.5554 202.463L75.362 216.583C53.7465 207.947 43.0646 200.217 27.1601 182.55L37.4397 172.14C52.5688 188.365 62.0183 194.912 80.5554 202.463Z" fill="#FBE400"/>
<path d="M74.9221 216.422C75.2154 216.53 75.5087 216.637 75.802 216.745C76.7202 214.55 77.6286 212.352 78.5273 210.15C79.5248 207.706 80.5102 205.257 81.4836 202.804L81.8267 201.94L80.9285 201.547C74.6545 198.802 68.491 195.893 62.7221 192.345C53.5404 186.769 45.7279 179.229 38.3008 171.337L37.4717 170.44L36.6021 171.312C33.191 174.798 29.7834 178.287 26.3793 181.779L25.6526 182.506L26.3446 183.285C37.9477 196.439 52.132 207.89 68.5495 214.35C70.7443 215.281 72.957 216.165 75.1881 217.019C75.304 216.729 75.42 216.438 75.5359 216.148C73.3389 215.233 71.1626 214.291 69.0084 213.308C52.8675 206.417 39.3689 195.042 27.9757 181.816L27.941 183.321C31.3899 179.873 34.8354 176.422 38.2774 172.967L36.5787 172.942C43.9807 180.949 51.9416 188.721 61.4138 194.475C67.3574 198.13 73.7298 200.936 80.1823 203.379L79.6272 202.121C78.7792 204.621 77.9433 207.124 77.1195 209.632C76.3772 211.892 75.6448 214.155 74.9221 216.422ZM75.802 216.745L74.9221 216.422L75.5359 216.148L75.1881 217.019L75.6134 217.196L75.802 216.745Z" fill="#040507"/>
<path d="M28.9066 141.22L15.8372 149.396C24.5491 168.199 32.0947 176.709 49.095 187.989L58.544 175.767C42.9151 164.907 36.5129 157.313 28.9066 141.22Z" fill="#FFA500"/>
<path d="M16.0858 149.794C15.92 149.529 15.7543 149.264 15.5886 148.999C17.3542 147.772 19.1254 146.553 20.9022 145.343C23.3762 143.659 25.8609 141.991 28.3563 140.341L29.3077 139.712L29.8446 140.777C32.3594 145.759 34.9992 150.632 38.1622 155.125C43.6379 163.057 51.2355 169.209 59.216 174.8L60.2323 175.499L59.4757 176.488C56.306 180.546 53.131 184.6 49.9508 188.65L49.3463 189.445L48.4969 188.89C35.7395 180.706 24.4698 169.345 18.1519 155.456C17.1955 153.522 16.2883 151.567 15.4119 149.594C15.6954 149.462 15.9789 149.331 16.2625 149.199C17.1976 151.135 18.1595 153.048 19.165 154.935C25.8876 168.525 36.9201 179.126 49.6931 187.087L48.2392 187.327C51.3583 183.23 54.4826 179.136 57.6123 175.047L57.8719 176.734C49.7707 171.178 41.8295 164.838 36.1177 156.564C32.8283 151.889 30.2527 146.819 27.9686 141.664L29.4568 142.1C26.8812 143.622 24.2948 145.127 21.6977 146.615C19.8326 147.683 17.9619 148.743 16.0858 149.794ZM15.5886 148.999L16.0858 149.794L16.2625 149.199L15.4119 149.594L15.2413 149.24L15.5886 148.999Z" fill="#040507"/>
<path d="M23.8848 151.195L10.0502 157.109C1.49799 135.459 -0.210856 122.386 1.72408 98.6932L16.3509 99.0253C14.9319 121.165 16.6557 132.53 23.8848 151.195Z" fill="#4C73FF"/>
<path d="M9.86598 156.678C9.9888 156.965 10.1116 157.252 10.2344 157.54C12.461 156.701 14.6834 155.853 16.9018 154.996C19.3641 154.044 21.8213 153.08 24.2735 152.105L25.1379 151.761L24.8071 150.838C22.4981 144.391 20.3839 137.912 19.0056 131.28C16.7598 120.776 16.8826 109.919 17.5257 99.1006L17.6093 97.8819L16.3777 97.8484C11.5015 97.7594 6.62533 97.6754 1.74899 97.5961L0.721866 97.5662L0.630368 98.6039C-0.974307 116.071 0.431284 134.246 6.99946 150.621C7.82877 152.856 8.7044 155.072 9.61425 157.281C9.90489 157.166 10.1955 157.051 10.4862 156.936C9.64416 154.71 8.83548 152.481 8.07252 150.239C2.0074 133.77 1.01669 116.146 2.8178 98.7825L1.69917 99.7903C6.57408 99.9325 11.4491 100.07 16.3242 100.202L15.1761 98.95C14.4324 109.828 14.2426 120.953 16.5583 131.791C17.9788 138.622 20.311 145.183 22.9626 151.552L23.4961 150.286C21.0964 151.384 18.7018 152.494 16.3122 153.616C14.1594 154.627 12.0106 155.648 9.86598 156.678ZM10.2344 157.54L9.86598 156.678L10.4862 156.936L9.61425 157.281L9.77726 157.712L10.2344 157.54Z" fill="#040507"/>
<path d="M23.1487 111.396L9.54613 110.84C9.97854 90.6789 13.1214 79.7997 23.0127 61.9711L35.0938 67.7156C26.1753 84.5215 23.6417 94.0684 23.1487 111.396Z" fill="#66308C"/>
<path d="M9.56529 110.371C9.55252 110.684 9.53975 110.996 9.52697 111.308C11.5901 111.497 13.6536 111.675 15.7176 111.843C18.1803 112.043 20.6437 112.228 23.1077 112.399L24.0929 112.467L24.1521 111.425C24.4826 105.646 24.9679 99.9199 26.0811 94.3203C27.8369 85.177 31.7619 76.6066 36.1338 68.2675L36.7133 67.1889L35.5994 66.6523C31.5626 64.7581 27.5234 62.8687 23.482 60.9842L22.5658 60.5401L22.0571 61.441C14.6018 74.5424 9.43088 89.4322 9.21651 104.599C9.12888 106.674 9.08746 108.749 9.07749 110.83C9.38992 110.836 9.70235 110.843 10.0148 110.85C10.094 108.78 10.2021 106.72 10.3535 104.665C11.065 89.608 16.382 75.4233 23.9683 62.5013L22.5434 62.9581C26.5561 64.9032 30.571 66.8435 34.5882 68.7789L34.0538 67.1637C29.5635 75.5196 25.4544 84.3342 23.6288 93.8342C22.4752 99.6408 22.1496 105.526 22.1453 111.368L23.1897 110.393C20.7201 110.362 18.2498 110.346 15.7789 110.344C13.7081 110.343 11.6369 110.352 9.56529 110.371ZM9.52697 111.308L9.56529 110.371L10.0148 110.85L9.07749 110.83L9.06083 111.265L9.52697 111.308Z" fill="#040507"/>
<path d="M51.0352 33.9731L41.0995 22.6751C24.0524 38.5252 16.8762 49.5862 8.41201 71.7994L21.754 77.8032C30.0145 57.2136 36.468 47.7006 51.0352 33.9731Z" fill="#EA2427"/>
<path d="M40.7475 22.9846C40.9822 22.7782 41.2169 22.5719 41.4515 22.3655C43.0994 24.0816 44.7394 25.8045 46.3716 27.5344C48.1833 29.4545 49.9854 31.383 51.7779 33.32L52.4096 34.0028L51.7135 34.6929C46.8514 39.5158 42.1514 44.4513 38.0499 49.841C31.4964 58.3523 26.9283 68.2023 22.8466 78.2416L22.3968 79.3773L21.2709 78.8767C16.8325 76.8556 12.3961 74.8301 7.9617 72.8001L7.02193 72.3845L7.38657 71.4087C13.466 54.9554 22.567 39.1602 35.5507 27.2148C37.2622 25.5553 39.0074 23.9329 40.7803 22.3318C40.9931 22.5606 41.2059 22.7895 41.4187 23.0184C39.6995 24.6644 38.0092 26.3273 36.3545 28.0216C23.7842 40.269 15.295 55.7455 9.43744 72.1901L8.86232 70.7987C13.3226 72.7713 17.7808 74.7483 22.2371 76.7297L20.6615 77.3649C24.6784 67.2279 29.3012 57.1078 36.0615 48.3257C40.2874 42.7734 45.2192 37.8583 50.3569 33.2534L50.2925 34.6263C48.6004 32.601 46.918 30.5672 45.2452 28.5249C43.7382 26.685 42.2389 24.8383 40.7475 22.9846ZM41.4515 22.3655L40.7475 22.9846L41.4187 23.0184L40.7803 22.3318L41.1132 22.0131L41.4515 22.3655Z" fill="#040507"/>
<path d="M48.9458 49.098L39.7693 39.0417C54.398 25.1621 64.3394 19.7396 83.9672 14.2218L88.387 26.8479C70.1703 32.3372 61.6043 37.2551 48.9458 49.098Z" fill="#443640"/>
<path d="M40.1155 38.7257C39.8847 38.9363 39.6539 39.147 39.423 39.3576C40.7408 40.9563 42.0662 42.5479 43.3993 44.1324C44.99 46.0232 46.5917 47.9039 48.2043 49.7746L48.8492 50.5227L49.6316 49.831C53.9698 45.9997 58.38 42.315 63.1418 39.1656C70.8738 33.9791 79.7252 30.737 88.7267 27.9752L89.9008 27.628L89.4982 26.4589C88.0034 22.2578 86.5036 18.0584 84.9986 13.8608L84.6695 12.8973L83.6714 13.1698C69.1165 17.092 54.8984 23.8957 43.9714 34.416C42.4353 35.814 40.9318 37.2448 39.4467 38.7016C39.6617 38.9283 39.8768 39.155 40.0919 39.3817C41.6181 37.9816 43.1582 36.6086 44.7247 35.2702C55.9234 25.1805 69.7433 18.9767 84.2629 15.2739L82.9358 14.5829C84.3773 18.8027 85.824 23.0207 87.2757 27.2369L88.0473 25.7206C78.9505 28.4102 69.7961 31.6932 61.7616 37.0811C56.8242 40.3474 52.4133 44.2577 48.26 48.365L49.6873 48.4214C47.9716 46.6447 46.245 44.878 44.5074 43.1213C43.0511 41.6491 41.5872 40.1839 40.1155 38.7257ZM39.423 39.3576L40.1155 38.7257L40.0919 39.3817L39.4467 38.7016L39.1253 38.9964L39.423 39.3576Z" fill="#040507"/>
<path d="M70.1032 26.157L63.4538 12.6607C84.6113 2.95556 97.5741 0.545451 121.336 1.20228L121.792 15.8258C99.6083 15.6005 88.352 17.9336 70.1032 26.157Z" fill="#EC2BD3"/>
<path d="M63.8742 12.4536C63.5939 12.5917 63.3136 12.7298 63.0333 12.8679C63.9903 15.0461 64.9567 17.2196 65.9324 19.3886C67.0154 21.7961 68.11 24.1979 69.216 26.5941L69.6059 27.4386L70.5095 27.0587C76.8232 24.406 83.1792 21.9461 89.7264 20.2128C100.095 17.4048 110.943 16.9431 121.78 17.003L123.001 17.0208L122.969 15.7891C122.795 10.9153 122.616 6.04162 122.433 1.16809L122.408 0.140845L121.367 0.105338C103.839 -0.5568 85.7653 1.82509 69.768 9.26516C67.5808 10.2136 65.4151 11.2072 63.2583 12.2347C63.3886 12.5187 63.5189 12.8027 63.6492 13.0868C65.8268 12.1262 68.0091 11.1987 70.2068 10.3161C86.3254 3.37331 103.871 1.43536 121.306 2.29921L120.239 1.23646C120.36 6.11194 120.485 10.9873 120.615 15.8625L121.804 14.6486C110.901 14.4915 99.7828 14.9008 89.085 17.7965C82.34 19.5827 75.9144 22.2647 69.6969 25.2553L70.9903 25.7199C69.7644 23.3828 68.5269 21.0514 67.278 18.7257C66.1527 16.6304 65.0182 14.5397 63.8742 12.4536ZM63.0333 12.8679L63.8742 12.4536L63.6492 13.0868L63.2583 12.2347L62.8368 12.4206L63.0333 12.8679Z" fill="#040507"/>
<path d="M76.6158 160.8H72.4695L68.0803 154.151V160.8H63.9339V147.576H68.0803L72.4695 154.337V147.576H76.6158V160.8ZM90.3866 150.266L83.6441 165.843H79.1055L81.7577 160.277L77.3685 150.266H81.9818L83.9616 155.607L85.8107 150.266H90.3866ZM95.2756 151.704C95.5371 151.218 95.9106 150.839 96.3962 150.565C96.8943 150.278 97.4858 150.135 98.1706 150.135C98.9924 150.135 99.7333 150.353 100.393 150.789C101.053 151.212 101.57 151.835 101.943 152.656C102.329 153.466 102.522 154.425 102.522 155.533C102.522 156.641 102.329 157.606 101.943 158.428C101.57 159.237 101.053 159.86 100.393 160.296C99.7333 160.719 98.9924 160.931 98.1706 160.931C97.4858 160.931 96.8943 160.794 96.3962 160.52C95.9106 160.233 95.5371 159.847 95.2756 159.362V160.8H91.1292V146.979H95.2756V151.704ZM98.32 155.533C98.32 154.972 98.1768 154.537 97.8904 154.225C97.6041 153.914 97.2367 153.758 96.7885 153.758C96.3402 153.758 95.9729 153.914 95.6865 154.225C95.4001 154.537 95.2569 154.972 95.2569 155.533C95.2569 156.093 95.4001 156.529 95.6865 156.84C95.9729 157.151 96.3402 157.307 96.7885 157.307C97.2367 157.307 97.6041 157.151 97.8904 156.84C98.1768 156.529 98.32 156.093 98.32 155.533ZM114.022 155.439C114.022 155.726 114.003 156 113.966 156.261H107.298C107.36 157.17 107.74 157.625 108.437 157.625C108.886 157.625 109.209 157.419 109.409 157.008H113.798C113.648 157.755 113.331 158.428 112.845 159.025C112.372 159.611 111.768 160.078 111.034 160.426C110.311 160.762 109.514 160.931 108.643 160.931C107.597 160.931 106.663 160.713 105.841 160.277C105.032 159.841 104.397 159.218 103.936 158.409C103.488 157.587 103.264 156.629 103.264 155.533C103.264 154.437 103.488 153.484 103.936 152.675C104.397 151.853 105.032 151.225 105.841 150.789C106.663 150.353 107.597 150.135 108.643 150.135C109.689 150.135 110.616 150.353 111.426 150.789C112.248 151.212 112.883 151.822 113.331 152.619C113.792 153.416 114.022 154.356 114.022 155.439ZM109.819 154.449C109.819 154.101 109.707 153.839 109.483 153.665C109.259 153.478 108.979 153.385 108.643 153.385C107.908 153.385 107.479 153.74 107.354 154.449H109.819ZM119.125 150.135C119.81 150.135 120.401 150.278 120.899 150.565C121.397 150.839 121.777 151.218 122.038 151.704V150.266H126.166V160.613C126.166 161.597 125.986 162.493 125.625 163.303C125.263 164.112 124.678 164.759 123.869 165.245C123.072 165.731 122.045 165.973 120.787 165.973C119.094 165.973 117.749 165.575 116.753 164.778C115.769 163.994 115.209 162.923 115.072 161.566H119.143C119.256 162.113 119.704 162.387 120.488 162.387C120.974 162.387 121.354 162.263 121.628 162.014C121.901 161.765 122.038 161.298 122.038 160.613V159.362C121.777 159.847 121.397 160.233 120.899 160.52C120.401 160.794 119.81 160.931 119.125 160.931C118.303 160.931 117.562 160.719 116.902 160.296C116.242 159.86 115.719 159.237 115.333 158.428C114.96 157.606 114.773 156.641 114.773 155.533C114.773 154.425 114.96 153.466 115.333 152.656C115.719 151.835 116.242 151.212 116.902 150.789C117.562 150.353 118.303 150.135 119.125 150.135ZM122.038 155.533C122.038 154.972 121.895 154.537 121.609 154.225C121.322 153.914 120.955 153.758 120.507 153.758C120.059 153.758 119.691 153.914 119.405 154.225C119.119 154.537 118.975 154.972 118.975 155.533C118.975 156.093 119.119 156.529 119.405 156.84C119.691 157.151 120.059 157.307 120.507 157.307C120.955 157.307 121.322 157.151 121.609 156.84C121.895 156.529 122.038 156.093 122.038 155.533ZM139.926 150.266L133.183 165.843H128.644L131.297 160.277L126.907 150.266H131.521L133.501 155.607L135.35 150.266H139.926ZM148.046 150.191C149.254 150.191 150.194 150.596 150.866 151.405C151.551 152.214 151.893 153.31 151.893 154.692V160.8H147.766V155.215C147.766 154.717 147.629 154.325 147.355 154.039C147.093 153.74 146.738 153.59 146.29 153.59C145.829 153.59 145.468 153.74 145.207 154.039C144.945 154.325 144.815 154.717 144.815 155.215V160.8H140.668V150.266H144.815V151.872C145.138 151.374 145.568 150.969 146.103 150.658C146.651 150.347 147.299 150.191 148.046 150.191ZM153.131 155.533C153.131 154.425 153.318 153.466 153.691 152.656C154.077 151.835 154.6 151.212 155.26 150.789C155.92 150.353 156.661 150.135 157.483 150.135C158.168 150.135 158.753 150.278 159.238 150.565C159.737 150.839 160.116 151.218 160.378 151.704V146.979H164.524V160.8H160.378V159.362C160.116 159.847 159.737 160.233 159.238 160.52C158.753 160.794 158.168 160.931 157.483 160.931C156.661 160.931 155.92 160.719 155.26 160.296C154.6 159.86 154.077 159.237 153.691 158.428C153.318 157.606 153.131 156.641 153.131 155.533ZM160.396 155.533C160.396 154.972 160.253 154.537 159.967 154.225C159.681 153.914 159.313 153.758 158.865 153.758C158.417 153.758 158.049 153.914 157.763 154.225C157.477 154.537 157.333 154.972 157.333 155.533C157.333 156.093 157.477 156.529 157.763 156.84C158.049 157.151 158.417 157.307 158.865 157.307C159.313 157.307 159.681 157.151 159.967 156.84C160.253 156.529 160.396 156.093 160.396 155.533ZM176.584 155.439C176.584 155.726 176.565 156 176.528 156.261H169.86C169.922 157.17 170.302 157.625 170.999 157.625C171.448 157.625 171.771 157.419 171.971 157.008H176.36C176.21 157.755 175.893 158.428 175.407 159.025C174.934 159.611 174.33 160.078 173.596 160.426C172.873 160.762 172.076 160.931 171.205 160.931C170.159 160.931 169.225 160.713 168.403 160.277C167.594 159.841 166.959 159.218 166.498 158.409C166.05 157.587 165.826 156.629 165.826 155.533C165.826 154.437 166.05 153.484 166.498 152.675C166.959 151.853 167.594 151.225 168.403 150.789C169.225 150.353 170.159 150.135 171.205 150.135C172.251 150.135 173.178 150.353 173.988 150.789C174.81 151.212 175.445 151.822 175.893 152.619C176.354 153.416 176.584 154.356 176.584 155.439ZM172.382 154.449C172.382 154.101 172.269 153.839 172.045 153.665C171.821 153.478 171.541 153.385 171.205 153.385C170.47 153.385 170.041 153.74 169.916 154.449H172.382ZM182.042 152.208C182.465 151.598 182.982 151.112 183.592 150.751C184.202 150.378 184.837 150.191 185.497 150.191V154.618H184.32C183.536 154.618 182.957 154.755 182.583 155.028C182.222 155.302 182.042 155.788 182.042 156.485V160.8H177.895V150.266H182.042V152.208Z" fill="white"/>
<path d="M56.6983 99.6222C57.2213 100.22 57.626 100.905 57.9124 101.677C58.1987 102.449 58.3419 103.277 58.3419 104.161C58.3419 105.456 58.0369 106.62 57.4267 107.653C56.8291 108.687 56.0073 109.496 54.9613 110.082C53.9278 110.667 52.7947 110.959 51.562 110.959C50.8398 110.959 50.1425 110.86 49.4702 110.661C48.8102 110.449 48.2001 110.156 47.6398 109.783L46.7059 110.81H44.5393L46.4257 108.718C45.8903 108.12 45.4732 107.436 45.1744 106.664C44.888 105.879 44.7448 105.045 44.7448 104.161C44.7448 102.866 45.0498 101.702 45.66 100.668C46.2701 99.6346 47.0919 98.8315 48.1254 98.2587C49.1713 97.6735 50.3169 97.3809 51.562 97.3809C53.0064 97.3809 54.3201 97.7731 55.503 98.5575L56.4182 97.5303H58.5661L56.6983 99.6222ZM48.9659 104.161C48.9659 104.709 49.0468 105.182 49.2087 105.58L52.8508 101.509C52.4772 101.309 52.0476 101.21 51.562 101.21C50.7278 101.21 50.0865 101.477 49.6383 102.013C49.19 102.536 48.9659 103.252 48.9659 104.161ZM54.1395 104.161C54.1395 103.613 54.0586 103.14 53.8967 102.741L50.2733 106.813C50.6468 107 51.0764 107.093 51.562 107.093C52.3838 107.093 53.0189 106.832 53.4671 106.309C53.9154 105.773 54.1395 105.057 54.1395 104.161ZM65.1982 106.888L66.8791 100.295H71.287L67.7756 110.829H62.602L59.0906 100.295H63.4985L65.1982 106.888ZM82.5849 105.468C82.5849 105.755 82.5663 106.029 82.5289 106.29H75.8611C75.9233 107.199 76.3031 107.653 77.0004 107.653C77.4486 107.653 77.7724 107.448 77.9716 107.037H82.3608C82.2114 107.784 81.8939 108.457 81.4083 109.054C80.9351 109.639 80.3312 110.106 79.5965 110.455C78.8744 110.791 78.0774 110.959 77.2058 110.959C76.1599 110.959 75.226 110.741 74.4042 110.306C73.5949 109.87 72.9598 109.247 72.4991 108.438C72.0509 107.616 71.8267 106.657 71.8267 105.562C71.8267 104.466 72.0509 103.513 72.4991 102.704C72.9598 101.882 73.5949 101.253 74.4042 100.818C75.226 100.382 76.1599 100.164 77.2058 100.164C78.2518 100.164 79.1794 100.382 79.9888 100.818C80.8106 101.241 81.4456 101.851 81.8939 102.648C82.3546 103.445 82.5849 104.385 82.5849 105.468ZM78.3825 104.478C78.3825 104.13 78.2704 103.868 78.0463 103.694C77.8222 103.507 77.542 103.414 77.2058 103.414C76.4712 103.414 76.0416 103.769 75.9171 104.478H78.3825ZM90.4521 107.299V110.829H88.8832C85.9944 110.829 84.55 109.39 84.55 106.514V103.75H83.2426V100.295H84.55V97.7544H88.6964V100.295H90.4147V103.75H88.6964V106.589C88.6964 106.838 88.7524 107.018 88.8645 107.13C88.989 107.243 89.1882 107.299 89.4622 107.299H90.4521Z" fill="white"/>
<path d="M76.4134 62.8013H72.0055L71.3518 64.7998H67L71.8375 51.5762H76.6189L81.4376 64.7998H77.0671L76.4134 62.8013ZM75.4048 59.6822L74.2095 56.0027L73.0141 59.6822H75.4048ZM87.7214 60.8589L89.4024 54.2657H93.8103L90.2989 64.7998H85.1253L81.6139 54.2657H86.0218L87.7214 60.8589ZM94.35 59.5328C94.35 58.4246 94.5368 57.4658 94.9103 56.6564C95.2963 55.8346 95.8193 55.2121 96.4792 54.7887C97.1392 54.3529 97.88 54.135 98.7019 54.135C99.3867 54.135 99.9781 54.2782 100.476 54.5646C100.974 54.8385 101.354 55.2183 101.616 55.7039V54.2657H105.743V64.7998H101.616V63.3616C101.354 63.8473 100.974 64.2333 100.476 64.5196C99.9781 64.7936 99.3867 64.9305 98.7019 64.9305C97.88 64.9305 97.1392 64.7189 96.4792 64.2955C95.8193 63.8597 95.2963 63.2371 94.9103 62.4278C94.5368 61.606 94.35 60.641 94.35 59.5328ZM101.616 59.5328C101.616 58.9724 101.472 58.5366 101.186 58.2254C100.9 57.9141 100.532 57.7584 100.084 57.7584C99.6357 57.7584 99.2684 57.9141 98.982 58.2254C98.6956 58.5366 98.5524 58.9724 98.5524 59.5328C98.5524 60.0931 98.6956 60.5289 98.982 60.8402C99.2684 61.1515 99.6357 61.3071 100.084 61.3071C100.532 61.3071 100.9 61.1515 101.186 60.8402C101.472 60.5289 101.616 60.0931 101.616 59.5328ZM114.983 54.191C116.191 54.191 117.131 54.5957 117.803 55.4051C118.488 56.2144 118.83 57.3102 118.83 58.6923V64.7998H114.703V59.2153C114.703 58.7172 114.566 58.325 114.292 58.0386C114.03 57.7397 113.675 57.5903 113.227 57.5903C112.766 57.5903 112.405 57.7397 112.144 58.0386C111.882 58.325 111.752 58.7172 111.752 59.2153V64.7998H107.605V54.2657H111.752V55.872C112.075 55.3739 112.505 54.9693 113.04 54.658C113.588 54.3467 114.236 54.191 114.983 54.191ZM120.068 59.5328C120.068 58.437 120.292 57.4845 120.74 56.6751C121.201 55.8533 121.836 55.2245 122.645 54.7887C123.467 54.3529 124.401 54.135 125.447 54.135C126.817 54.135 127.968 54.521 128.902 55.293C129.849 56.065 130.446 57.1358 130.695 58.5055H126.306C126.144 57.9576 125.827 57.6837 125.354 57.6837C125.017 57.6837 124.75 57.8394 124.551 58.1506C124.364 58.4619 124.27 58.9226 124.27 59.5328C124.27 60.1429 124.364 60.6036 124.551 60.9149C124.75 61.2262 125.017 61.3818 125.354 61.3818C125.827 61.3818 126.144 61.1079 126.306 60.56H130.695C130.446 61.9297 129.849 63.0005 128.902 63.7725C127.968 64.5445 126.817 64.9305 125.447 64.9305C124.401 64.9305 123.467 64.7126 122.645 64.2768C121.836 63.841 121.201 63.2184 120.74 62.4091C120.292 61.5873 120.068 60.6285 120.068 59.5328ZM142.208 59.4394C142.208 59.7258 142.189 59.9997 142.152 60.2612H135.484C135.546 61.1702 135.926 61.6246 136.623 61.6246C137.071 61.6246 137.395 61.4192 137.594 61.0083H141.984C141.834 61.7554 141.517 62.4278 141.031 63.0254C140.558 63.6107 139.954 64.0776 139.219 64.4263C138.497 64.7624 137.7 64.9305 136.829 64.9305C135.783 64.9305 134.849 64.7126 134.027 64.2768C133.218 63.841 132.583 63.2184 132.122 62.4091C131.674 61.5873 131.449 60.6285 131.449 59.5328C131.449 58.437 131.674 57.4845 132.122 56.6751C132.583 55.8533 133.218 55.2245 134.027 54.7887C134.849 54.3529 135.783 54.135 136.829 54.135C137.875 54.135 138.802 54.3529 139.612 54.7887C140.433 55.2121 141.068 55.8222 141.517 56.6191C141.977 57.416 142.208 58.3561 142.208 59.4394ZM138.005 58.4495C138.005 58.1008 137.893 57.8394 137.669 57.665C137.445 57.4783 137.165 57.3849 136.829 57.3849C136.094 57.3849 135.664 57.7397 135.54 58.4495H138.005ZM147.665 56.2082C148.089 55.5981 148.606 55.1124 149.216 54.7514C149.826 54.3778 150.461 54.191 151.121 54.191V58.6176H149.944C149.16 58.6176 148.581 58.7545 148.207 59.0285C147.846 59.3024 147.665 59.788 147.665 60.4853V64.7998H143.519V54.2657H147.665V56.2082ZM162.435 59.4394C162.435 59.7258 162.417 59.9997 162.379 60.2612H155.712C155.774 61.1702 156.154 61.6246 156.851 61.6246C157.299 61.6246 157.623 61.4192 157.822 61.0083H162.211C162.062 61.7554 161.744 62.4278 161.259 63.0254C160.786 63.6107 160.182 64.0776 159.447 64.4263C158.725 64.7624 157.928 64.9305 157.056 64.9305C156.01 64.9305 155.077 64.7126 154.255 64.2768C153.445 63.841 152.81 63.2184 152.35 62.4091C151.901 61.5873 151.677 60.6285 151.677 59.5328C151.677 58.437 151.901 57.4845 152.35 56.6751C152.81 55.8533 153.445 55.2245 154.255 54.7887C155.077 54.3529 156.01 54.135 157.056 54.135C158.102 54.135 159.03 54.3529 159.839 54.7887C160.661 55.2121 161.296 55.8222 161.744 56.6191C162.205 57.416 162.435 58.3561 162.435 59.4394ZM158.233 58.4495C158.233 58.1008 158.121 57.8394 157.897 57.665C157.673 57.4783 157.393 57.3849 157.056 57.3849C156.322 57.3849 155.892 57.7397 155.768 58.4495H158.233ZM170.303 61.2698V64.7998H168.734C165.845 64.7998 164.401 63.3616 164.401 60.4853V57.7211H163.093V54.2657H164.401V51.7256H168.547V54.2657H170.265V57.7211H168.547V60.56C168.547 60.8091 168.603 60.9896 168.715 61.1017C168.84 61.2137 169.039 61.2698 169.313 61.2698H170.303Z" fill="white"/>
<path d="M41.7129 148.352C41.7129 148.352 53.9064 165.811 68.4839 174.811C84.0484 184.421 110.819 186.329 110.819 186.329" stroke="white" stroke-width="2.5" stroke-linecap="round"/>
<path d="M47.3159 62.124C47.3159 62.124 35.5986 76.4434 31.5308 96.0945C26.7708 119.09 37.6659 140.258 37.6659 140.258" stroke="white" stroke-width="2.5" stroke-linecap="round"/>
<path d="M115.8 28.8159C115.8 28.8159 98.7213 29.7024 82.4917 35.6643C67.2385 41.2675 53.5417 54.653 53.5417 54.653" stroke="white" stroke-width="2.5" stroke-linecap="round"/>
</svg>
