<svg width="221" height="141" viewBox="0 0 221 141" fill="none" xmlns="http://www.w3.org/2000/svg">
<mask id="path-1-outside-1_149_3390" maskUnits="userSpaceOnUse" x="120.799" y="77.0171" width="18" height="43" fill="black">
<rect fill="white" x="120.799" y="77.0171" width="18" height="43"/>
<path d="M122.799 84.9471C122.799 81.1197 125.901 78.0171 129.729 78.0171C133.556 78.0171 136.659 81.1197 136.659 84.9471V111.512C136.659 115.339 133.556 118.442 129.729 118.442C125.901 118.442 122.799 115.339 122.799 111.512V84.9471Z"/>
</mask>
<path d="M122.799 84.9471C122.799 81.1197 125.901 78.0171 129.729 78.0171C133.556 78.0171 136.659 81.1197 136.659 84.9471V111.512C136.659 115.339 133.556 118.442 129.729 118.442C125.901 118.442 122.799 115.339 122.799 111.512V84.9471Z" fill="#66308C"/>
<path d="M129.729 78.0171C131.235 78.5329 132.69 79.1245 133.783 80.1082C135.163 81.3324 135.94 83.1512 135.878 84.9471C135.656 93.8021 135.513 102.657 135.448 111.512C135.494 114.557 132.75 117.266 129.729 117.192C126.707 117.266 123.964 114.557 124.009 111.512C123.945 102.657 123.801 93.802 123.58 84.9471C123.518 83.1512 124.294 81.3324 125.674 80.1082C126.767 79.1245 128.222 78.5329 129.729 78.4858C129.729 78.1733 129.729 77.8608 129.729 77.5483C128.008 77.4892 126.252 78.0659 124.881 79.1625C123.152 80.5203 122.053 82.6978 122.018 84.9471C121.796 93.802 121.653 102.657 121.588 111.512C121.454 115.85 125.368 119.798 129.729 119.692C134.09 119.798 138.003 115.85 137.869 111.512C137.805 102.657 137.661 93.8021 137.44 84.9471C137.404 82.6978 136.306 80.5203 134.576 79.1625C133.205 78.0659 131.449 77.4892 129.729 77.5483V78.0171ZM129.729 78.0171Lnan nanL129.729 77.5483V78.4858Lnan nanL129.729 78.0171Z" fill="#040507" mask="url(#path-1-outside-1_149_3390)"/>
<mask id="path-3-outside-2_149_3390" maskUnits="userSpaceOnUse" x="-0.786255" y="76.4419" width="18" height="43" fill="black">
<rect fill="white" x="-0.786255" y="76.4419" width="18" height="43"/>
<path d="M1.21375 111.512C1.21375 115.339 4.31641 118.442 8.14373 118.442C11.9711 118.442 15.0737 115.339 15.0737 111.512V84.947C15.0737 81.1196 11.9711 78.017 8.14373 78.017C4.31641 78.017 1.21375 81.1196 1.21375 84.947V111.512Z"/>
</mask>
<path d="M1.21375 111.512C1.21375 115.339 4.31641 118.442 8.14373 118.442C11.9711 118.442 15.0737 115.339 15.0737 111.512V84.947C15.0737 81.1196 11.9711 78.017 8.14373 78.017C4.31641 78.017 1.21375 81.1196 1.21375 84.947V111.512Z" fill="#66308C"/>
<path d="M8.14373 118.442C9.65049 117.926 11.1049 117.334 12.1982 116.351C13.5783 115.127 14.3548 113.308 14.2927 111.512C14.0709 102.657 13.9278 93.802 13.8633 84.947C13.9089 81.9021 11.1653 79.1933 8.14373 79.267C5.12211 79.1933 2.37854 81.9021 2.42412 84.947C2.35966 93.802 2.21654 102.657 1.99476 111.512C1.9327 113.308 2.70913 115.127 4.08929 116.351C5.18253 117.334 6.63697 117.926 8.14373 117.973C8.14373 118.286 8.14373 118.598 8.14373 118.911C6.42342 118.97 4.6675 118.393 3.29599 117.297C1.56668 115.939 0.46848 113.761 0.432728 111.512C0.210953 102.657 0.0678341 93.802 0.00337017 84.947C-0.130558 80.6092 3.78268 76.6612 8.14373 76.767C12.5048 76.6612 16.418 80.6092 16.2841 84.947C16.2196 93.802 16.0765 102.657 15.8547 111.512C15.819 113.761 14.7208 115.939 12.9915 117.297C11.62 118.393 9.86404 118.97 8.14373 118.911V118.442ZM8.14373 118.442Lnan nanL8.14373 118.911V117.973Lnan nanL8.14373 118.442Z" fill="#040507" mask="url(#path-3-outside-2_149_3390)"/>
<path d="M37.019 110.357V87.2575H101.699V110.357H37.019Z" fill="#FFA500"/>
<path d="M36.5503 110.357C36.8628 110.357 37.1753 110.357 37.4878 110.357C37.592 107.431 37.6857 104.505 37.769 101.579C37.905 96.8055 38.0132 92.0315 38.0937 87.2575L37.019 88.3322C43.949 88.449 50.879 88.5075 57.809 88.5075C72.439 88.5075 87.0689 88.4785 101.699 88.4207L100.536 87.2575C100.566 94.9575 100.605 102.657 100.651 110.357L101.699 109.31C83.0649 109.422 64.431 109.582 45.797 109.788C42.871 109.82 39.945 109.854 37.019 109.889C37.019 110.201 37.019 110.514 37.019 110.826C39.945 110.861 42.871 110.894 45.797 110.927C64.431 111.133 83.0649 111.293 101.699 111.405L102.753 111.399L102.747 110.357C102.793 102.657 102.832 94.9575 102.862 87.2575L102.857 86.0897L101.699 86.0943C87.0689 86.0364 72.439 86.0075 57.809 86.0075C50.879 86.0075 43.949 86.0659 37.019 86.1828L35.9265 86.2012L35.9443 87.2575C36.0248 92.0315 36.1331 96.8055 36.269 101.579C36.3524 104.505 36.4461 107.431 36.5503 110.357ZM37.4878 110.357H36.5503L36.5672 110.832L37.019 110.826V109.889L37.4878 110.357Z" fill="#040507"/>
<path d="M16.229 119.597C16.229 125.976 21.4001 131.147 27.779 131.147H30.089C36.4678 131.147 41.6389 125.976 41.6389 119.597V76.8626C41.6389 70.4837 36.4678 65.3126 30.089 65.3126H27.779C21.4001 65.3126 16.229 70.4837 16.229 76.8626V119.597Z" fill="#66308C"/>
<path d="M27.779 131.616C27.779 131.304 27.779 130.991 27.779 130.679C28.549 130.664 29.319 130.649 30.089 130.635C31.9477 130.601 33.7797 130.093 35.3707 129.172C38.7664 127.246 40.9258 123.433 40.8267 119.597C40.6218 105.353 40.4889 91.1076 40.4278 76.8626C40.5338 71.3572 35.5715 66.4291 30.089 66.5626C29.319 66.5626 28.549 66.5624 27.779 66.562C22.2964 66.4249 17.3271 71.3513 17.4296 76.8626C17.3608 91.1076 17.2201 105.353 17.0074 119.597C16.9378 122.718 18.3169 125.846 20.7014 127.931C22.6236 129.636 25.1717 130.636 27.779 130.679C27.779 130.991 27.779 131.304 27.779 131.616C24.9561 131.68 22.1036 130.693 19.9019 128.871C17.1725 126.651 15.4774 123.167 15.4506 119.597C15.238 105.353 15.0972 91.1076 15.0284 76.8626C14.8318 70.0694 20.9572 63.9012 27.779 64.0633C28.549 64.0628 29.319 64.0626 30.089 64.0626C36.9109 63.897 43.0433 70.0636 42.8501 76.8626C42.789 91.1076 42.6561 105.353 42.4512 119.597C42.4368 124.015 39.8163 128.247 35.9679 130.253C34.1627 131.216 32.1163 131.7 30.089 131.66C29.319 131.646 28.549 131.631 27.779 131.616ZM27.779 130.679V131.616V130.679Z" fill="#040507"/>
<path d="M97.0789 76.8625C97.0789 70.4836 102.25 65.3125 108.629 65.3125H110.939C117.318 65.3125 122.489 70.4836 122.489 76.8625V119.597C122.489 125.976 117.318 131.147 110.939 131.147H108.629C102.25 131.147 97.0789 125.976 97.0789 119.597V76.8625Z" fill="#66308C"/>
<path d="M108.629 64.8438C108.629 65.1562 108.629 65.4688 108.629 65.7812C109.399 65.796 110.169 65.8106 110.939 65.825C112.798 65.8585 114.63 66.3671 116.221 67.2877C119.616 69.2143 121.776 73.0273 121.677 76.8625C121.472 91.1074 121.339 105.352 121.278 119.597C121.384 125.103 116.421 130.031 110.939 129.897C110.169 129.897 109.399 129.898 108.629 129.898C103.146 130.035 98.1769 125.109 98.2794 119.597C98.2106 105.352 98.0699 91.1074 97.8573 76.8625C97.7877 73.7417 99.1668 70.614 101.551 68.5295C103.473 66.8237 106.022 65.8239 108.629 65.7812C108.629 65.4688 108.629 65.1562 108.629 64.8438C105.806 64.7802 102.953 65.7667 100.752 67.589C98.0224 69.8093 96.3273 73.2934 96.3004 76.8625C96.0878 91.1074 95.9471 105.352 95.8783 119.597C95.6816 126.391 101.807 132.559 108.629 132.397C109.399 132.397 110.169 132.397 110.939 132.397C117.761 132.563 123.893 126.396 123.7 119.597C123.639 105.352 123.506 91.1074 123.301 76.8625C123.287 72.4452 120.666 68.2127 116.818 66.2074C115.013 65.2444 112.966 64.7604 110.939 64.8C110.169 64.8144 109.399 64.829 108.629 64.8438ZM108.629 65.7812V64.8438V65.7812Z" fill="#040507"/>
<mask id="path-11-outside-3_149_3390" maskUnits="userSpaceOnUse" x="170.336" y="91.3976" width="42.4705" height="43.7408" fill="black">
<rect fill="white" x="170.336" y="91.3976" width="42.4705" height="43.7408"/>
<path d="M195.691 98.5653C198.299 95.7635 202.684 95.6059 205.486 98.2132C208.287 100.821 208.445 105.206 205.838 108.007L187.741 127.454C185.133 130.256 180.748 130.414 177.946 127.807C175.145 125.199 174.987 120.814 177.594 118.012L195.691 98.5653Z"/>
</mask>
<path d="M195.691 98.5653C198.299 95.7635 202.684 95.6059 205.486 98.2132C208.287 100.821 208.445 105.206 205.838 108.007L187.741 127.454C185.133 130.256 180.748 130.414 177.946 127.807C175.145 125.199 174.987 120.814 177.594 118.012L195.691 98.5653Z" fill="#66308C"/>
<path d="M205.486 98.2132C206.237 99.6172 206.899 101.041 207.029 102.506C207.206 104.342 206.535 106.203 205.266 107.475C199.071 113.807 192.934 120.191 186.855 126.63C184.814 128.89 180.96 129.004 178.798 126.891C176.536 124.887 176.373 121.035 178.48 118.837C184.466 112.311 190.393 105.731 196.263 99.0974C197.441 97.7405 199.249 96.9379 201.093 96.9819C202.563 97.0066 204.031 97.5643 205.166 98.5563C205.379 98.3276 205.592 98.0988 205.805 97.87C204.586 96.6548 202.908 95.8807 201.157 95.7492C198.966 95.5651 196.678 96.411 195.12 98.0333C188.925 104.365 182.788 110.749 176.708 117.188C173.655 120.272 173.83 125.828 177.095 128.722C180.215 131.77 185.77 131.546 188.627 128.279C194.612 121.753 200.539 115.173 206.41 108.539C207.916 106.868 208.595 104.526 208.254 102.354C207.997 100.617 207.105 98.9987 205.805 97.87L205.486 98.2132ZM205.486 98.2132Lnan nanL205.805 97.87L205.166 98.5563Lnan nanL205.486 98.2132Z" fill="#040507" mask="url(#path-11-outside-3_149_3390)"/>
<mask id="path-13-outside-4_149_3390" maskUnits="userSpaceOnUse" x="82.2566" y="6.78515" width="42.4705" height="43.7408" fill="black">
<rect fill="white" x="82.2566" y="6.78515" width="42.4705" height="43.7408"/>
<path d="M89.123 33.8209C86.5156 36.6227 86.6733 41.0077 89.4751 43.615C92.2769 46.2224 96.6619 46.0647 99.2693 43.2629L117.366 23.8158C119.974 21.014 119.816 16.629 117.014 14.0217C114.212 11.4144 109.828 11.572 107.22 14.3738L89.123 33.8209Z"/>
</mask>
<path d="M89.123 33.8209C86.5156 36.6227 86.6733 41.0077 89.4751 43.615C92.2769 46.2224 96.6619 46.0647 99.2693 43.2629L117.366 23.8158C119.974 21.014 119.816 16.629 117.014 14.0217C114.212 11.4144 109.828 11.572 107.22 14.3738L89.123 33.8209Z" fill="#66308C"/>
<path d="M89.4751 43.615C90.9295 44.2639 92.3973 44.8216 93.8677 44.8463C95.7121 44.8903 97.5195 44.0878 98.6975 42.7308C104.568 36.0974 110.495 29.5176 116.48 22.9913C118.588 20.7933 118.425 16.9413 116.163 14.9368C114.001 12.8244 110.147 12.9383 108.106 15.1984C102.027 21.6368 95.8895 28.0217 89.6947 34.353C88.4259 35.6253 87.7552 37.4857 87.9316 39.3222C88.0618 40.787 88.7235 42.211 89.7945 43.2719C89.5816 43.5007 89.3687 43.7294 89.1558 43.9582C87.8561 42.8295 86.9635 41.2112 86.7066 39.4741C86.3656 37.302 87.0451 34.9598 88.5512 33.2888C94.4213 26.6554 100.349 20.0756 106.334 13.5493C109.191 10.2826 114.745 10.0582 117.866 13.1066C121.13 16.0001 121.306 21.5562 118.253 24.6404C112.173 31.0788 106.036 37.4637 99.841 43.795C98.2825 45.4172 95.9952 46.2631 93.8042 46.0791C92.0531 45.9475 90.3749 45.1734 89.1558 43.9582L89.4751 43.615ZM89.4751 43.615Lnan nanL89.1558 43.9582L89.7945 43.2719Lnan nanL89.4751 43.615Z" fill="#040507" mask="url(#path-13-outside-4_149_3390)"/>
<path d="M116.121 57.3672L131.858 40.4567L179.207 84.5194L163.47 101.43L116.121 57.3672Z" fill="#FFA500"/>
<path d="M115.778 57.0479C116.007 57.2607 116.235 57.4736 116.464 57.6865C118.534 55.6155 120.596 53.5374 122.65 51.4521C126.002 48.0499 129.333 44.6288 132.644 41.1888L131.126 41.2435C136.119 46.05 141.152 50.8138 146.226 55.5348C156.936 65.5014 167.665 75.4467 178.415 85.3709L178.355 83.727C173.132 89.3846 167.915 95.0476 162.703 100.716L164.184 100.663C150.466 88.051 136.717 75.4734 122.935 62.9303C120.771 60.9607 118.606 58.9919 116.44 57.024C116.227 57.2528 116.015 57.4816 115.802 57.7103C117.92 59.7291 120.039 61.747 122.159 63.764C135.66 76.6093 149.192 89.4203 162.757 102.197L163.533 102.91L164.237 102.144C169.517 96.5385 174.791 90.9279 180.059 85.3118L180.851 84.4538L179.999 83.6679C169.329 73.659 158.639 63.6712 147.929 53.7046C142.855 48.9836 137.743 44.3054 132.59 39.67L131.777 38.9392L131.071 39.7246C127.878 43.2742 124.705 46.8428 121.552 50.4303C119.62 52.629 117.695 54.8349 115.778 57.0479ZM116.464 57.6865L115.778 57.0479L115.467 57.4064L115.802 57.7103L116.44 57.024L116.464 57.6865Z" fill="#040507"/>
<path d="M94.6067 49.9686C90.2612 54.6383 90.5239 61.9466 95.1936 66.2922L96.8847 67.8658C101.554 72.2114 108.863 71.9486 113.208 67.2789L142.321 35.9945C146.667 31.3248 146.404 24.0165 141.734 19.671L140.043 18.0973C135.373 13.7517 128.065 14.0145 123.72 18.6842L94.6067 49.9686Z" fill="#66308C"/>
<path d="M94.8743 66.6353C95.0872 66.4066 95.3001 66.1778 95.513 65.949C96.0867 66.4627 96.6603 66.9766 97.2338 67.4907C98.6173 68.7323 100.305 69.6081 102.097 70.018C105.895 70.9209 110.074 69.6007 112.614 66.7256C122.168 56.1579 131.775 45.6392 141.435 35.1695C145.263 31.2114 144.987 24.2232 140.883 20.586C140.319 20.0615 139.755 19.5368 139.192 19.0119C135.272 15.1765 128.278 15.3977 124.599 19.5021C114.844 29.8833 105.037 40.2156 95.1766 50.4989C92.9996 52.7361 91.8785 55.9652 92.204 59.1156C92.4491 61.6738 93.6334 64.1416 95.513 65.949C95.3001 66.1778 95.0872 66.4066 94.8743 66.6353C92.7645 64.7588 91.3483 62.0933 90.978 59.2594C90.4925 55.7747 91.6251 52.0694 94.0369 49.4383C103.586 38.8653 113.187 28.3413 122.841 17.8663C127.325 12.7594 136.011 12.4167 140.894 17.1827C141.458 17.7069 142.022 18.2313 142.586 18.7559C147.693 23.282 147.981 31.974 143.208 36.8196C133.459 47.2062 123.657 57.5437 113.803 67.8323C110.783 71.0562 105.981 72.3694 101.798 71.2157C99.8205 70.6909 97.9927 69.6511 96.5355 68.241C95.9817 67.7059 95.4279 67.1707 94.8743 66.6353ZM95.513 65.949L94.8743 66.6353L95.513 65.949Z" fill="#040507"/>
<path d="M182.906 73.7629C187.252 69.0932 194.56 68.8304 199.23 73.176L200.921 74.7496C205.591 79.0952 205.854 86.4035 201.508 91.0732L172.395 122.358C168.05 127.027 160.741 127.29 156.072 122.944L154.38 121.371C149.711 117.025 149.448 109.717 153.794 105.047L182.906 73.7629Z" fill="#66308C"/>
<path d="M199.549 72.8328C199.336 73.0616 199.124 73.2903 198.911 73.5191C199.464 74.0545 200.018 74.5897 200.572 75.1248C201.91 76.4155 202.904 78.0359 203.442 79.7937C204.615 83.5174 203.599 87.7799 200.913 90.5198C191.059 100.808 181.257 111.146 171.509 121.533C167.836 125.635 160.846 125.862 156.923 122.029C156.359 121.505 155.796 120.98 155.232 120.456C151.125 116.822 150.843 109.83 154.672 105.865C164.326 95.3901 173.928 84.8661 183.476 74.2932C185.551 71.9612 188.692 70.611 191.857 70.7094C194.426 70.7702 196.973 71.7742 198.911 73.5191C199.124 73.2903 199.336 73.0616 199.549 72.8328C197.526 70.8632 194.766 69.6421 191.913 69.4763C188.402 69.2423 184.788 70.638 182.337 73.2326C172.477 83.5158 162.669 93.8481 152.915 104.229C148.143 109.068 148.425 117.757 153.529 122.285C154.093 122.81 154.656 123.335 155.22 123.86C160.101 128.628 168.791 128.292 173.282 123.183C182.941 112.713 192.548 102.194 202.103 91.6266C205.101 88.383 206.066 83.4994 204.615 79.4098C203.95 77.475 202.781 75.7265 201.27 74.3744C200.697 73.8604 200.123 73.3465 199.549 72.8328ZM198.911 73.5191L199.549 72.8328L198.911 73.5191Z" fill="#040507"/>
<path d="M50.2002 97.546C49.5805 97.0226 47.8614 94.993 47.1571 94.5029C45.0724 93.0522 42.7137 94.9999 42.7137 94.9999L42.5289 103.5V109.723C42.5289 109.723 58.7924 109.86 62.2137 109.723C64.5912 109.628 88.2869 109.826 89.2137 109.311C90.0684 108.835 90.6953 106.367 87.1851 105C83.6748 103.632 65.1256 107.675 54.2578 100.589C52.5986 99.5074 50.82 98.0695 50.2002 97.546Z" fill="#FBE400"/>
<path d="M159.92 84.6883C159.997 85.4958 159.809 88.1489 159.971 88.9917C160.448 91.486 163.589 92.8752 163.589 92.8752L169.714 86.5002C169.714 86.5002 173.617 82.3703 174.694 81.267C175.048 80.9049 160.658 68.3937 159.717 67.4746C158.813 66.5914 140.455 49.2415 139.714 50.0002C139.159 50.5677 137.113 50.0829 138.669 53.5139C140.225 56.9449 156.32 67.0134 159.143 79.6761C159.574 81.6094 159.842 83.8807 159.92 84.6883Z" fill="#FBE400"/>
</svg>
